<?xml version="1.0" standalone="no"?>
<!DOCTYPE svg PUBLIC "-//W3C//DTD SVG 20010904//EN"
 "http://www.w3.org/TR/2001/REC-SVG-20010904/DTD/svg10.dtd">
<svg version="1.0" xmlns="http://www.w3.org/2000/svg"
 width="15.000000pt" height="38.000000pt" viewBox="0 0 15.000000 38.000000"
 preserveAspectRatio="xMidYMid meet">

<g transform="translate(0.000000,38.000000) scale(0.100000,-0.100000)"
fill="#000000" stroke="none">
<path d="M25 355 c-24 -23 -25 -28 -25 -173 0 -132 2 -151 18 -165 24 -22 55
-21 75 1 14 15 17 40 17 129 0 116 -8 139 -47 131 -15 -3 -19 -15 -21 -66 -2
-38 1 -62 8 -62 6 0 10 24 10 56 0 40 3 55 13 52 8 -3 12 -35 12 -113 0 -90
-3 -110 -17 -118 -12 -8 -21 -7 -32 2 -13 11 -16 38 -16 157 0 136 1 144 22
158 30 21 44 20 68 -4 18 -18 20 -33 20 -130 0 -67 4 -110 10 -110 6 0 10 45
10 115 0 110 -1 117 -25 140 -13 14 -36 25 -50 25 -14 0 -37 -11 -50 -25z"/>
</g>
</svg>
